# Blender v3.2.1 OBJ File: ''
# www.blender.org
mtllib hsphere.mtl
o geo1_geo1.001
v 0.000308 0.000424 -0.001666
v 0.000499 -0.000162 -0.001666
v 0.000000 -0.000525 -0.001666
v -0.000499 -0.000162 -0.001666
v -0.000308 0.000424 -0.001666
v 0.000308 0.000424 -0.001666
v 0.000308 0.001300 -0.001125
v -0.000308 0.000424 -0.001666
v 0.000617 0.000849 -0.001373
v -0.000308 0.001300 -0.001125
v -0.000617 0.000849 -0.001373
v 0.000308 0.000424 -0.001666
v 0.001141 0.000695 -0.001125
v 0.000499 -0.000162 -0.001666
v 0.001332 0.000109 -0.001125
v 0.000617 0.000849 -0.001373
v 0.000998 -0.000324 -0.001373
v 0.000308 0.001300 -0.001125
v -0.000499 0.001562 -0.000600
v 0.000499 0.001562 -0.000600
v -0.000308 0.001300 -0.001125
v 0.000000 0.001725 -0.000276
v 0.000308 0.001300 -0.001125
v 0.001141 0.000695 -0.001125
v 0.001332 0.000957 -0.000600
v 0.000499 0.001562 -0.000600
v 0.000617 0.000849 -0.001373
v 0.000998 0.001373 -0.000324
v 0.001141 0.000695 -0.001125
v 0.001332 0.000109 -0.001125
v 0.001640 0.000008 -0.000600
v 0.001332 0.000957 -0.000600
v 0.001640 0.000533 -0.000276
v 0.000499 -0.000162 -0.001666
v 0.001014 -0.000871 -0.001125
v 0.000000 -0.000525 -0.001666
v 0.000515 -0.001233 -0.001125
v 0.000998 -0.000324 -0.001373
v 0.000000 -0.001049 -0.001373
v 0.001332 0.000109 -0.001125
v 0.001014 -0.000871 -0.001125
v 0.001322 -0.000971 -0.000600
v 0.001640 0.000008 -0.000600
v 0.000998 -0.000324 -0.001373
v 0.001614 -0.000525 -0.000324
v 0.001014 -0.000871 -0.001125
v 0.000515 -0.001233 -0.001125
v 0.000515 -0.001557 -0.000600
v 0.001322 -0.000971 -0.000600
v 0.001014 -0.001395 -0.000276
v 0.000000 -0.000525 -0.001666
v -0.000515 -0.001233 -0.001125
v -0.000499 -0.000162 -0.001666
v -0.001014 -0.000871 -0.001125
v 0.000000 -0.001049 -0.001373
v -0.000998 -0.000324 -0.001373
v 0.000515 -0.001233 -0.001125
v -0.000515 -0.001233 -0.001125
v -0.000515 -0.001557 -0.000600
v 0.000515 -0.001557 -0.000600
v 0.000000 -0.001049 -0.001373
v 0.000000 -0.001698 -0.000324
v -0.000515 -0.001233 -0.001125
v -0.001014 -0.000871 -0.001125
v -0.001322 -0.000971 -0.000600
v -0.000515 -0.001557 -0.000600
v -0.001014 -0.001395 -0.000276
v -0.000499 -0.000162 -0.001666
v -0.001332 0.000109 -0.001125
v -0.001141 0.000695 -0.001125
v -0.000308 0.000424 -0.001666
v -0.000617 0.000849 -0.001373
v -0.000998 -0.000324 -0.001373
v -0.001014 -0.000871 -0.001125
v -0.001332 0.000109 -0.001125
v -0.001640 0.000008 -0.000600
v -0.001322 -0.000971 -0.000600
v -0.000998 -0.000324 -0.001373
v -0.001614 -0.000525 -0.000324
v -0.001332 0.000109 -0.001125
v -0.001141 0.000695 -0.001125
v -0.001332 0.000957 -0.000600
v -0.001640 0.000008 -0.000600
v -0.001640 0.000533 -0.000276
v -0.001141 0.000695 -0.001125
v -0.000499 0.001562 -0.000600
v -0.001332 0.000957 -0.000600
v -0.000308 0.001300 -0.001125
v -0.000617 0.000849 -0.001373
v -0.000998 0.001373 -0.000324
v -0.000499 0.001562 -0.000600
v -0.001014 0.001395 0.000276
v -0.000515 0.001557 0.000600
v 0.000000 0.001725 -0.000276
v -0.000998 0.001373 -0.000324
v 0.000000 0.001698 0.000324
v -0.001332 0.000957 -0.000600
v -0.001014 0.001395 0.000276
v -0.001640 0.000533 -0.000276
v -0.000998 0.001373 -0.000324
v -0.001322 0.000971 0.000600
v -0.001614 0.000525 0.000324
v -0.001014 0.001395 0.000276
v -0.000515 0.001557 0.000600
v -0.001322 0.000971 0.000600
v -0.000515 0.001233 0.001125
v -0.001014 0.000871 0.001125
v -0.001640 0.000008 -0.000600
v -0.001640 -0.000533 0.000276
v -0.001640 -0.000008 0.000600
v -0.001614 -0.000525 -0.000324
v -0.001640 0.000533 -0.000276
v -0.001614 0.000525 0.000324
v -0.001322 -0.000971 -0.000600
v -0.001640 -0.000533 0.000276
v -0.001014 -0.001395 -0.000276
v -0.001614 -0.000525 -0.000324
v -0.001332 -0.000957 0.000600
v -0.000998 -0.001373 0.000324
v -0.001640 -0.000533 0.000276
v -0.001640 -0.000008 0.000600
v -0.001332 -0.000957 0.000600
v -0.001332 -0.000109 0.001125
v -0.001141 -0.000695 0.001125
v -0.000515 -0.001557 -0.000600
v 0.000000 -0.001725 0.000276
v -0.000499 -0.001562 0.000600
v 0.000000 -0.001698 -0.000324
v -0.001014 -0.001395 -0.000276
v -0.000998 -0.001373 0.000324
v 0.000515 -0.001557 -0.000600
v 0.000000 -0.001725 0.000276
v 0.001014 -0.001395 -0.000276
v 0.000000 -0.001698 -0.000324
v 0.000499 -0.001562 0.000600
v 0.000998 -0.001373 0.000324
v 0.000000 -0.001725 0.000276
v -0.000499 -0.001562 0.000600
v 0.000499 -0.001562 0.000600
v -0.000308 -0.001300 0.001125
v 0.000308 -0.001300 0.001125
v 0.001322 -0.000971 -0.000600
v 0.001640 -0.000533 0.000276
v 0.001332 -0.000957 0.000600
v 0.001614 -0.000525 -0.000324
v 0.001014 -0.001395 -0.000276
v 0.000998 -0.001373 0.000324
v 0.001640 0.000008 -0.000600
v 0.001640 -0.000533 0.000276
v 0.001640 0.000533 -0.000276
v 0.001614 -0.000525 -0.000324
v 0.001640 -0.000008 0.000600
v 0.001614 0.000525 0.000324
v 0.001640 -0.000533 0.000276
v 0.001332 -0.000957 0.000600
v 0.001640 -0.000008 0.000600
v 0.001141 -0.000695 0.001125
v 0.001332 -0.000109 0.001125
v 0.001332 0.000957 -0.000600
v 0.001014 0.001395 0.000276
v 0.001322 0.000971 0.000600
v 0.000998 0.001373 -0.000324
v 0.001640 0.000533 -0.000276
v 0.001614 0.000525 0.000324
v 0.000499 0.001562 -0.000600
v 0.001014 0.001395 0.000276
v 0.000000 0.001725 -0.000276
v 0.000998 0.001373 -0.000324
v 0.000000 0.001698 0.000324
v 0.000515 0.001557 0.000600
v 0.001014 0.001395 0.000276
v 0.001322 0.000971 0.000600
v 0.000515 0.001557 0.000600
v 0.001014 0.000871 0.001125
v 0.000515 0.001233 0.001125
v -0.000515 0.001557 0.000600
v 0.000000 0.001698 0.000324
v -0.000515 0.001233 0.001125
v 0.000515 0.001557 0.000600
v 0.000515 0.001233 0.001125
v 0.000000 0.001049 0.001373
v -0.001640 -0.000008 0.000600
v -0.001322 0.000971 0.000600
v -0.001614 0.000525 0.000324
v -0.001014 0.000871 0.001125
v -0.001332 -0.000109 0.001125
v -0.000998 0.000324 0.001373
v -0.000499 -0.001562 0.000600
v -0.001332 -0.000957 0.000600
v -0.000998 -0.001373 0.000324
v -0.001141 -0.000695 0.001125
v -0.000308 -0.001300 0.001125
v -0.000617 -0.000849 0.001373
v 0.001332 -0.000957 0.000600
v 0.000499 -0.001562 0.000600
v 0.000998 -0.001373 0.000324
v 0.000308 -0.001300 0.001125
v 0.001141 -0.000695 0.001125
v 0.000617 -0.000849 0.001373
v 0.001322 0.000971 0.000600
v 0.001640 -0.000008 0.000600
v 0.001614 0.000525 0.000324
v 0.001332 -0.000109 0.001125
v 0.001014 0.000871 0.001125
v 0.000998 0.000324 0.001373
v 0.000000 0.000525 0.001666
v 0.000499 0.000162 0.001666
v 0.000308 -0.000424 0.001666
v -0.000308 -0.000424 0.001666
v -0.000499 0.000162 0.001666
v 0.000000 0.000525 0.001666
v 0.000499 0.000162 0.001666
v 0.001014 0.000871 0.001125
v 0.000515 0.001233 0.001125
v 0.000000 0.001049 0.001373
v 0.000998 0.000324 0.001373
v 0.000000 0.000525 0.001666
v -0.000515 0.001233 0.001125
v -0.001014 0.000871 0.001125
v 0.000000 0.001049 0.001373
v -0.000998 0.000324 0.001373
v -0.000499 0.000162 0.001666
v 0.000499 0.000162 0.001666
v 0.000308 -0.000424 0.001666
v 0.001141 -0.000695 0.001125
v 0.001332 -0.000109 0.001125
v 0.000617 -0.000849 0.001373
v 0.000998 0.000324 0.001373
v 0.000308 -0.000424 0.001666
v -0.000308 -0.000424 0.001666
v -0.000308 -0.001300 0.001125
v 0.000308 -0.001300 0.001125
v -0.000617 -0.000849 0.001373
v 0.000617 -0.000849 0.001373
v -0.000308 -0.000424 0.001666
v -0.001332 -0.000109 0.001125
v -0.001141 -0.000695 0.001125
v -0.000998 0.000324 0.001373
v -0.000617 -0.000849 0.001373
v -0.000499 0.000162 0.001666
vt 0.123324 0.142857
vt 0.155398 0.044145
vt 0.071429 -0.016862
vt -0.012541 0.044145
vt 0.019533 0.142857
vt 0.249577 0.012509
vt 0.178994 0.012509
vt 0.143703 0.071429
vt 0.178994 0.130348
vt 0.249577 0.130348
vt 0.284869 0.071429
vt 0.290796 0.053681
vt 0.306458 0.120551
vt 0.372805 0.138299
vt 0.423490 0.089176
vt 0.407828 0.022306
vt 0.341480 0.004558
vt 0.551896 0.000000
vt 0.448104 0.000000
vt 0.416031 0.098712
vt 0.500000 0.159719
vt 0.583969 0.098712
vt 0.578474 0.047518
vt 0.591394 0.116909
vt 0.655777 0.140819
vt 0.707241 0.095339
vt 0.694321 0.025948
vt 0.629937 0.002038
vt 0.712983 0.021375
vt 0.715635 0.125133
vt 0.815135 0.154673
vt 0.873976 0.069172
vt 0.810843 -0.013211
vt 0.894705 0.131178
vt 0.963365 0.132840
vt 0.997231 0.073090
vt 0.962438 0.011679
vt 0.893778 0.010017
vt 0.859912 0.069767
vt 0.004197 0.228319
vt 0.052074 0.280182
vt 0.119305 0.266149
vt 0.138660 0.200252
vt 0.090783 0.148389
vt 0.023552 0.162422
vt 0.130316 0.241569
vt 0.214286 0.302576
vt 0.298255 0.241569
vt 0.266182 0.142857
vt 0.162390 0.142857
vt 0.425803 0.212624
vt 0.391937 0.152874
vt 0.323277 0.154536
vt 0.288483 0.215947
vt 0.322349 0.275697
vt 0.391009 0.274036
vt 0.558919 0.249577
vt 0.558919 0.178994
vt 0.500000 0.143703
vt 0.441081 0.178994
vt 0.441081 0.249577
vt 0.500000 0.284869
vt 0.694753 0.142857
vt 0.590961 0.142857
vt 0.558888 0.241569
vt 0.642857 0.302576
vt 0.726826 0.241569
vt 0.801377 0.147415
vt 0.735029 0.165163
vt 0.719367 0.232034
vt 0.770052 0.281156
vt 0.836399 0.263408
vt 0.852062 0.196538
vt 0.909217 0.148389
vt 0.861340 0.200252
vt 0.880695 0.266149
vt 0.947926 0.280182
vt 0.995803 0.228319
vt 0.976448 0.162422
vt 0.046300 0.272504
vt -0.016833 0.354886
vt 0.042008 0.440387
vt 0.141507 0.410847
vt 0.144160 0.307090
vt 0.162822 0.311663
vt 0.149902 0.381053
vt 0.201366 0.426533
vt 0.265749 0.402623
vt 0.278669 0.333233
vt 0.227206 0.287752
vt 0.358098 0.288469
vt 0.297101 0.320035
vt 0.296146 0.388709
vt 0.356188 0.425816
vt 0.417184 0.394251
vt 0.418139 0.325577
vt 0.499045 0.288470
vt 0.439004 0.325577
vt 0.439958 0.394251
vt 0.500955 0.425816
vt 0.560996 0.388709
vt 0.560042 0.320035
vt 0.629392 0.269885
vt 0.555709 0.342985
vt 0.602462 0.435650
vt 0.705040 0.419821
vt 0.721683 0.317373
vt 0.786669 0.288469
vt 0.725673 0.320035
vt 0.724718 0.388709
vt 0.784759 0.425816
vt 0.845756 0.394251
vt 0.846711 0.325577
vt 0.927617 0.288470
vt 0.867575 0.325577
vt 0.868530 0.394251
vt 0.929526 0.425816
vt 0.989568 0.388709
vt 0.988613 0.320035
vt 0.019533 0.428571
vt -0.012541 0.527283
vt 0.071429 0.588291
vt 0.155398 0.527283
vt 0.123324 0.428571
vt 0.215241 0.431327
vt 0.154244 0.462892
vt 0.153289 0.531566
vt 0.213331 0.568673
vt 0.274327 0.537108
vt 0.275282 0.468434
vt 0.356188 0.431327
vt 0.296146 0.468434
vt 0.297101 0.537108
vt 0.358098 0.568673
vt 0.418139 0.531566
vt 0.417184 0.462892
vt 0.500000 0.588291
vt 0.583969 0.527283
vt 0.551896 0.428571
vt 0.448104 0.428571
vt 0.416031 0.527283
vt 0.643812 0.431327
vt 0.582816 0.462892
vt 0.581861 0.531566
vt 0.641902 0.568673
vt 0.702899 0.537108
vt 0.703854 0.468434
vt 0.784759 0.431327
vt 0.724718 0.468434
vt 0.725673 0.537108
vt 0.786669 0.568673
vt 0.846711 0.531566
vt 0.845756 0.462892
vt 0.980467 0.428571
vt 0.876676 0.428571
vt 0.844602 0.527283
vt 0.928572 0.588291
vt 1.012541 0.527283
vt 0.072383 0.574184
vt 0.011387 0.605749
vt 0.010432 0.674423
vt 0.070474 0.711531
vt 0.131470 0.679965
vt 0.132425 0.611291
vt 0.213331 0.574184
vt 0.153289 0.611291
vt 0.154244 0.679965
vt 0.215241 0.711531
vt 0.275282 0.674423
vt 0.274327 0.605749
vt 0.370608 0.555599
vt 0.278317 0.603087
vt 0.294961 0.705536
vt 0.397538 0.721365
vt 0.444291 0.628699
vt 0.441081 0.607566
vt 0.441081 0.678149
vt 0.500000 0.713440
vt 0.558919 0.678149
vt 0.558919 0.607566
vt 0.500000 0.572274
vt 0.574780 0.633777
vt 0.602726 0.698592
vt 0.670803 0.707672
vt 0.710934 0.651937
vt 0.682989 0.587122
vt 0.614912 0.578042
vt 0.742872 0.696536
vt 0.812823 0.705961
vt 0.855665 0.652282
vt 0.828557 0.589178
vt 0.758606 0.579753
vt 0.715763 0.633433
vt 0.955680 0.579753
vt 0.885729 0.589178
vt 0.858620 0.652282
vt 0.901463 0.705961
vt 0.971414 0.696536
vt 0.998523 0.633433
vt 0.031297 0.729979
vt 0.003351 0.794794
vt 0.043483 0.850530
vt 0.111560 0.841449
vt 0.139506 0.776634
vt 0.099374 0.720899
vt 0.214286 0.697424
vt 0.130316 0.758431
vt 0.162390 0.857143
vt 0.266182 0.857143
vt 0.298255 0.758431
vt 0.303425 0.828509
vt 0.369523 0.853269
vt 0.423240 0.810475
vt 0.410860 0.742920
vt 0.344763 0.718159
vt 0.291045 0.760954
vt 0.553717 0.828509
vt 0.566098 0.760954
vt 0.512380 0.718159
vt 0.446283 0.742920
vt 0.433902 0.810475
vt 0.487620 0.853269
vt 0.576813 0.766870
vt 0.595076 0.835049
vt 0.661121 0.853894
vt 0.708901 0.804559
vt 0.690638 0.736379
vt 0.624594 0.717535
vt 0.821006 0.726795
vt 0.750423 0.726795
vt 0.715131 0.785714
vt 0.750423 0.844633
vt 0.821006 0.844633
vt 0.856297 0.785714
vt 0.976352 0.835049
vt 0.994616 0.766870
vt 0.946835 0.717535
vt 0.880791 0.736379
vt 0.862527 0.804559
vt 0.910308 0.853894
vn -0.0000 0.0000 -1.0000
vn 0.0000 0.5257 -0.8507
vn 0.5000 0.1625 -0.8507
vn 0.0000 0.8944 -0.4472
vn 0.5000 0.6882 -0.5257
vn 0.8507 0.2764 -0.4472
vn 0.3090 -0.4253 -0.8507
vn 0.8090 -0.2629 -0.5257
vn 0.5257 -0.7236 -0.4472
vn -0.3090 -0.4253 -0.8507
vn 0.0000 -0.8507 -0.5257
vn -0.5257 -0.7236 -0.4472
vn -0.5000 0.1625 -0.8507
vn -0.8090 -0.2629 -0.5257
vn -0.8507 0.2764 -0.4472
vn -0.5000 0.6882 -0.5257
vn -0.3090 0.9511 0.0000
vn -0.8090 0.5878 0.0000
vn -0.5257 0.7236 0.4472
vn -1.0000 -0.0000 0.0000
vn -0.8090 -0.5878 -0.0000
vn -0.8507 -0.2764 0.4472
vn -0.3090 -0.9511 -0.0000
vn 0.3090 -0.9511 -0.0000
vn 0.0000 -0.8944 0.4472
vn 0.8090 -0.5878 -0.0000
vn 1.0000 -0.0000 0.0000
vn 0.8507 -0.2764 0.4472
vn 0.8090 0.5878 0.0000
vn 0.3090 0.9511 0.0000
vn 0.5257 0.7236 0.4472
vn 0.0000 0.8507 0.5257
vn -0.8090 0.2629 0.5257
vn -0.5000 -0.6882 0.5257
vn 0.5000 -0.6882 0.5257
vn 0.8090 0.2629 0.5257
vn 0.0000 -0.0000 1.0000
vn 0.3090 0.4253 0.8507
vn -0.3090 0.4253 0.8507
vn 0.5000 -0.1625 0.8507
vn 0.0000 -0.5257 0.8507
vn -0.5000 -0.1625 0.8507
usemtl constant.001
s 1
f 1/1/1 2/2/1 3/3/1 4/4/1 5/5/1
f 6/6/2 8/7/2 11/8/2 10/9/2 7/10/2 9/11/2
f 12/12/3 16/13/3 13/14/3 15/15/3 17/16/3 14/17/3
f 18/18/4 21/19/4 19/20/4 22/21/4 20/22/4
f 23/23/5 26/24/5 28/25/5 25/26/5 24/27/5 27/28/5
f 29/29/6 32/30/6 33/31/6 31/32/6 30/33/6
f 34/34/7 38/35/7 35/36/7 37/37/7 39/38/7 36/39/7
f 40/40/8 43/41/8 45/42/8 42/43/8 41/44/8 44/45/8
f 46/46/9 49/47/9 50/48/9 48/49/9 47/50/9
f 51/51/10 55/52/10 52/53/10 54/54/10 56/55/10 53/56/10
f 57/57/11 60/58/11 62/59/11 59/60/11 58/61/11 61/62/11
f 63/63/12 66/64/12 67/65/12 65/66/12 64/67/12
f 68/68/13 73/69/13 69/70/13 70/71/13 72/72/13 71/73/13
f 74/74/14 77/75/14 79/76/14 76/77/14 75/78/14 78/79/14
f 80/80/15 83/81/15 84/82/15 82/83/15 81/84/15
f 85/85/16 87/86/16 90/87/16 86/88/16 88/89/16 89/90/16
f 91/91/17 95/92/17 92/93/17 93/94/17 96/95/17 94/96/17
f 97/97/18 99/98/18 102/99/18 101/100/18 98/101/18 100/102/18
f 103/103/19 105/104/19 107/105/19 106/106/19 104/107/19
f 108/108/20 111/109/20 109/110/20 110/111/20 113/112/20 112/113/20
f 114/114/21 116/115/21 119/116/21 118/117/21 115/118/21 117/119/21
f 120/120/22 122/121/22 124/122/22 123/123/22 121/124/22
f 125/125/23 128/126/23 126/127/23 127/128/23 130/129/23 129/130/23
f 131/131/24 133/132/24 136/133/24 135/134/24 132/135/24 134/136/24
f 137/137/25 139/138/25 141/139/25 140/140/25 138/141/25
f 142/142/26 145/143/26 143/144/26 144/145/26 147/146/26 146/147/26
f 148/148/27 150/149/27 153/150/27 152/151/27 149/152/27 151/153/27
f 154/154/28 156/155/28 158/156/28 157/157/28 155/158/28
f 159/159/29 162/160/29 160/161/29 161/162/29 164/163/29 163/164/29
f 165/165/30 167/166/30 169/167/30 170/168/30 166/169/30 168/170/30
f 171/171/31 173/172/31 175/173/31 174/174/31 172/175/31
f 176/176/32 178/177/32 181/178/32 180/179/32 179/180/32 177/181/32
f 182/182/33 186/183/33 187/184/33 185/185/33 183/186/33 184/187/33
f 188/188/34 192/189/34 193/190/34 191/191/34 189/192/34 190/193/34
f 194/194/35 198/195/35 199/196/35 197/197/35 195/198/35 196/199/35
f 200/200/36 204/201/36 205/202/36 203/203/36 201/204/36 202/205/36
f 206/206/37 210/207/37 209/208/37 208/209/37 207/210/37
f 211/211/38 212/212/38 216/213/38 213/214/38 214/215/38 215/216/38
f 217/217/39 220/218/39 218/219/39 219/220/39 221/221/39 222/222/39
f 223/223/40 224/224/40 227/225/40 225/226/40 226/227/40 228/228/40
f 229/229/41 230/230/41 233/231/41 231/232/41 232/233/41 234/234/41
f 235/235/42 240/236/42 238/237/42 236/238/42 237/239/42 239/240/42
